<svg width="600" height="300" viewBox="0 0 600 300" fill="none" xmlns="http://www.w3.org/2000/svg">
<rect x="1" y="1" width="598" height="298" rx="9" stroke="#1E1E1E" stroke-width="2"/>
<path d="M207.232 237V225.08H211.136C212.373 225.08 213.445 225.331 214.352 225.832C215.269 226.323 215.979 227.016 216.48 227.912C216.981 228.808 217.232 229.848 217.232 231.032C217.232 232.205 216.981 233.245 216.48 234.152C215.979 235.048 215.269 235.747 214.352 236.248C213.445 236.749 212.373 237 211.136 237H207.232ZM209.12 235.32H211.168C212.011 235.32 212.741 235.144 213.36 234.792C213.989 234.44 214.475 233.944 214.816 233.304C215.157 232.664 215.328 231.907 215.328 231.032C215.328 230.157 215.152 229.405 214.8 228.776C214.459 228.136 213.979 227.64 213.36 227.288C212.741 226.936 212.011 226.76 211.168 226.76H209.12V235.32ZM218.915 237V228.344H220.643V230.088L220.483 229.832C220.675 229.267 220.985 228.861 221.411 228.616C221.838 228.36 222.35 228.232 222.947 228.232H223.475V229.88H222.723C222.126 229.88 221.641 230.067 221.267 230.44C220.905 230.803 220.723 231.325 220.723 232.008V237H218.915ZM227.304 237.192C226.718 237.192 226.2 237.091 225.752 236.888C225.315 236.675 224.974 236.387 224.728 236.024C224.483 235.651 224.36 235.213 224.36 234.712C224.36 234.243 224.462 233.821 224.664 233.448C224.878 233.075 225.203 232.76 225.64 232.504C226.078 232.248 226.627 232.067 227.288 231.96L230.296 231.464V232.888L227.64 233.352C227.16 233.437 226.808 233.592 226.584 233.816C226.36 234.029 226.248 234.307 226.248 234.648C226.248 234.979 226.371 235.251 226.616 235.464C226.872 235.667 227.198 235.768 227.592 235.768C228.083 235.768 228.51 235.661 228.872 235.448C229.246 235.235 229.534 234.952 229.736 234.6C229.939 234.237 230.04 233.837 230.04 233.4V231.176C230.04 230.749 229.88 230.403 229.56 230.136C229.251 229.859 228.835 229.72 228.312 229.72C227.832 229.72 227.411 229.848 227.048 230.104C226.696 230.349 226.435 230.669 226.264 231.064L224.76 230.312C224.92 229.885 225.182 229.512 225.544 229.192C225.907 228.861 226.328 228.605 226.808 228.424C227.299 228.243 227.816 228.152 228.36 228.152C229.043 228.152 229.646 228.28 230.168 228.536C230.702 228.792 231.112 229.149 231.4 229.608C231.699 230.056 231.848 230.579 231.848 231.176V237H230.12V235.432L230.488 235.48C230.286 235.832 230.024 236.136 229.704 236.392C229.395 236.648 229.038 236.845 228.632 236.984C228.238 237.123 227.795 237.192 227.304 237.192ZM238.138 240.52C237.509 240.52 236.928 240.419 236.394 240.216C235.861 240.013 235.402 239.731 235.018 239.368C234.634 239.016 234.346 238.6 234.154 238.12L235.818 237.432C235.968 237.837 236.24 238.173 236.634 238.44C237.04 238.707 237.536 238.84 238.122 238.84C238.581 238.84 238.992 238.749 239.354 238.568C239.717 238.397 240.005 238.141 240.218 237.8C240.432 237.469 240.538 237.069 240.538 236.6V234.648L240.858 235.016C240.56 235.571 240.144 235.992 239.61 236.28C239.088 236.568 238.496 236.712 237.834 236.712C237.034 236.712 236.314 236.525 235.674 236.152C235.034 235.779 234.528 235.267 234.154 234.616C233.792 233.965 233.61 233.235 233.61 232.424C233.61 231.603 233.792 230.872 234.154 230.232C234.528 229.592 235.029 229.085 235.658 228.712C236.288 228.339 237.008 228.152 237.818 228.152C238.48 228.152 239.066 228.296 239.578 228.584C240.101 228.861 240.528 229.267 240.858 229.8L240.618 230.248V228.344H242.33V236.6C242.33 237.347 242.149 238.013 241.786 238.6C241.434 239.197 240.944 239.667 240.314 240.008C239.685 240.349 238.96 240.52 238.138 240.52ZM238.042 235.032C238.522 235.032 238.949 234.92 239.322 234.696C239.696 234.461 239.989 234.152 240.202 233.768C240.426 233.373 240.538 232.931 240.538 232.44C240.538 231.949 240.426 231.507 240.202 231.112C239.978 230.717 239.68 230.408 239.306 230.184C238.933 229.949 238.512 229.832 238.042 229.832C237.552 229.832 237.114 229.949 236.73 230.184C236.346 230.408 236.042 230.717 235.818 231.112C235.605 231.496 235.498 231.939 235.498 232.44C235.498 232.92 235.605 233.357 235.818 233.752C236.042 234.147 236.346 234.461 236.73 234.696C237.114 234.92 237.552 235.032 238.042 235.032ZM250.876 237.192C250.172 237.192 249.553 237.064 249.02 236.808C248.486 236.541 248.065 236.173 247.756 235.704C247.457 235.224 247.308 234.669 247.308 234.04C247.308 233.507 247.404 233.043 247.596 232.648C247.788 232.243 248.028 231.901 248.316 231.624C248.604 231.336 248.892 231.096 249.18 230.904C249.468 230.712 249.708 230.563 249.9 230.456L250.876 229.912C251.196 229.731 251.5 229.539 251.788 229.336C252.076 229.133 252.31 228.904 252.492 228.648C252.673 228.392 252.764 228.104 252.764 227.784C252.764 227.4 252.636 227.08 252.38 226.824C252.124 226.557 251.804 226.424 251.42 226.424C251.036 226.424 250.716 226.552 250.46 226.808C250.204 227.064 250.076 227.395 250.076 227.8C250.076 228.077 250.14 228.349 250.268 228.616C250.406 228.883 250.566 229.133 250.748 229.368C250.94 229.592 251.126 229.805 251.308 230.008L257.708 237H255.452L249.964 231.096C249.708 230.819 249.452 230.525 249.196 230.216C248.95 229.896 248.742 229.544 248.572 229.16C248.412 228.776 248.332 228.349 248.332 227.88C248.332 227.272 248.47 226.744 248.748 226.296C249.036 225.848 249.409 225.501 249.868 225.256C250.337 225.011 250.849 224.888 251.404 224.888C251.969 224.888 252.481 225.016 252.94 225.272C253.398 225.517 253.761 225.859 254.028 226.296C254.305 226.733 254.444 227.229 254.444 227.784C254.444 228.36 254.31 228.856 254.044 229.272C253.777 229.688 253.452 230.04 253.068 230.328C252.694 230.616 252.342 230.861 252.012 231.064L251.036 231.64C250.78 231.789 250.508 231.976 250.22 232.2C249.942 232.413 249.708 232.669 249.516 232.968C249.324 233.256 249.228 233.603 249.228 234.008C249.228 234.509 249.382 234.899 249.692 235.176C250.012 235.453 250.428 235.592 250.94 235.592C251.27 235.592 251.564 235.539 251.82 235.432C252.076 235.325 252.3 235.187 252.492 235.016C252.694 234.845 252.87 234.659 253.02 234.456C253.18 234.243 253.324 234.045 253.452 233.864L255.308 231.144H257.244L255.1 234.472C254.929 234.728 254.726 235.016 254.492 235.336C254.257 235.645 253.974 235.944 253.644 236.232C253.313 236.509 252.918 236.739 252.46 236.92C252.012 237.101 251.484 237.192 250.876 237.192ZM262.607 237V225.08H266.511C267.748 225.08 268.82 225.331 269.727 225.832C270.644 226.323 271.354 227.016 271.855 227.912C272.356 228.808 272.607 229.848 272.607 231.032C272.607 232.205 272.356 233.245 271.855 234.152C271.354 235.048 270.644 235.747 269.727 236.248C268.82 236.749 267.748 237 266.511 237H262.607ZM264.495 235.32H266.543C267.386 235.32 268.116 235.144 268.735 234.792C269.364 234.44 269.85 233.944 270.191 233.304C270.532 232.664 270.703 231.907 270.703 231.032C270.703 230.157 270.527 229.405 270.175 228.776C269.834 228.136 269.354 227.64 268.735 227.288C268.116 226.936 267.386 226.76 266.543 226.76H264.495V235.32ZM274.29 237V228.344H276.018V230.088L275.858 229.832C276.05 229.267 276.36 228.861 276.786 228.616C277.213 228.36 277.725 228.232 278.322 228.232H278.85V229.88H278.098C277.501 229.88 277.016 230.067 276.642 230.44C276.28 230.803 276.098 231.325 276.098 232.008V237H274.29ZM284.263 237.192C283.431 237.192 282.669 236.995 281.975 236.6C281.293 236.205 280.749 235.667 280.343 234.984C279.938 234.301 279.735 233.528 279.735 232.664C279.735 231.789 279.938 231.016 280.343 230.344C280.749 229.661 281.293 229.128 281.975 228.744C282.658 228.349 283.421 228.152 284.263 228.152C285.117 228.152 285.879 228.349 286.551 228.744C287.234 229.128 287.773 229.661 288.167 230.344C288.573 231.016 288.775 231.789 288.775 232.664C288.775 233.539 288.573 234.317 288.167 235C287.762 235.683 287.218 236.221 286.535 236.616C285.853 237 285.095 237.192 284.263 237.192ZM284.263 235.512C284.775 235.512 285.229 235.389 285.623 235.144C286.018 234.899 286.327 234.563 286.551 234.136C286.786 233.699 286.903 233.208 286.903 232.664C286.903 232.12 286.786 231.635 286.551 231.208C286.327 230.781 286.018 230.445 285.623 230.2C285.229 229.955 284.775 229.832 284.263 229.832C283.762 229.832 283.309 229.955 282.903 230.2C282.509 230.445 282.194 230.781 281.959 231.208C281.735 231.635 281.623 232.12 281.623 232.664C281.623 233.208 281.735 233.699 281.959 234.136C282.194 234.563 282.509 234.899 282.903 235.144C283.309 235.389 283.762 235.512 284.263 235.512ZM290.54 240.2V228.344H292.268V230.136L292.06 229.72C292.38 229.229 292.807 228.845 293.34 228.568C293.874 228.291 294.482 228.152 295.164 228.152C295.986 228.152 296.722 228.349 297.372 228.744C298.034 229.139 298.551 229.677 298.924 230.36C299.308 231.043 299.5 231.811 299.5 232.664C299.5 233.517 299.308 234.285 298.924 234.968C298.551 235.651 298.039 236.195 297.388 236.6C296.738 236.995 295.996 237.192 295.164 237.192C294.492 237.192 293.879 237.053 293.324 236.776C292.78 236.499 292.359 236.099 292.06 235.576L292.348 235.24V240.2H290.54ZM294.988 235.512C295.5 235.512 295.954 235.389 296.348 235.144C296.743 234.899 297.052 234.563 297.276 234.136C297.511 233.699 297.628 233.208 297.628 232.664C297.628 232.12 297.511 231.635 297.276 231.208C297.052 230.781 296.743 230.445 296.348 230.2C295.954 229.955 295.5 229.832 294.988 229.832C294.487 229.832 294.034 229.955 293.628 230.2C293.234 230.445 292.919 230.781 292.684 231.208C292.46 231.635 292.348 232.12 292.348 232.664C292.348 233.208 292.46 233.699 292.684 234.136C292.919 234.563 293.234 234.899 293.628 235.144C294.034 235.389 294.487 235.512 294.988 235.512ZM309.784 237.192C308.941 237.192 308.157 237.037 307.432 236.728C306.717 236.419 306.093 235.992 305.56 235.448C305.037 234.893 304.627 234.243 304.328 233.496C304.029 232.749 303.88 231.928 303.88 231.032C303.88 230.147 304.024 229.331 304.312 228.584C304.611 227.827 305.027 227.176 305.56 226.632C306.093 226.077 306.717 225.651 307.432 225.352C308.147 225.043 308.931 224.888 309.784 224.888C310.627 224.888 311.379 225.032 312.04 225.32C312.712 225.608 313.277 225.987 313.736 226.456C314.195 226.915 314.525 227.416 314.728 227.96L313.032 228.76C312.776 228.12 312.365 227.603 311.8 227.208C311.245 226.803 310.573 226.6 309.784 226.6C308.995 226.6 308.296 226.787 307.688 227.16C307.08 227.533 306.605 228.051 306.264 228.712C305.933 229.373 305.768 230.147 305.768 231.032C305.768 231.917 305.933 232.696 306.264 233.368C306.605 234.029 307.08 234.547 307.688 234.92C308.296 235.283 308.995 235.464 309.784 235.464C310.573 235.464 311.245 235.267 311.8 234.872C312.365 234.477 312.776 233.96 313.032 233.32L314.728 234.12C314.525 234.653 314.195 235.155 313.736 235.624C313.277 236.093 312.712 236.472 312.04 236.76C311.379 237.048 310.627 237.192 309.784 237.192ZM320.513 237.192C319.681 237.192 318.919 236.995 318.225 236.6C317.543 236.205 316.999 235.667 316.593 234.984C316.188 234.301 315.985 233.528 315.985 232.664C315.985 231.789 316.188 231.016 316.593 230.344C316.999 229.661 317.543 229.128 318.225 228.744C318.908 228.349 319.671 228.152 320.513 228.152C321.367 228.152 322.129 228.349 322.801 228.744C323.484 229.128 324.023 229.661 324.417 230.344C324.823 231.016 325.025 231.789 325.025 232.664C325.025 233.539 324.823 234.317 324.417 235C324.012 235.683 323.468 236.221 322.785 236.616C322.103 237 321.345 237.192 320.513 237.192ZM320.513 235.512C321.025 235.512 321.479 235.389 321.873 235.144C322.268 234.899 322.577 234.563 322.801 234.136C323.036 233.699 323.153 233.208 323.153 232.664C323.153 232.12 323.036 231.635 322.801 231.208C322.577 230.781 322.268 230.445 321.873 230.2C321.479 229.955 321.025 229.832 320.513 229.832C320.012 229.832 319.559 229.955 319.153 230.2C318.759 230.445 318.444 230.781 318.209 231.208C317.985 231.635 317.873 232.12 317.873 232.664C317.873 233.208 317.985 233.699 318.209 234.136C318.444 234.563 318.759 234.899 319.153 235.144C319.559 235.389 320.012 235.512 320.513 235.512ZM329.146 237L325.754 228.344H327.722L330.33 235.4H329.61L332.218 228.344H334.202L330.794 237H329.146ZM339.339 237.192C338.475 237.192 337.707 236.995 337.035 236.6C336.373 236.195 335.856 235.651 335.483 234.968C335.109 234.275 334.923 233.501 334.923 232.648C334.923 231.773 335.109 231 335.483 230.328C335.867 229.656 336.379 229.128 337.019 228.744C337.659 228.349 338.384 228.152 339.195 228.152C339.845 228.152 340.427 228.264 340.939 228.488C341.451 228.712 341.883 229.021 342.235 229.416C342.587 229.8 342.853 230.243 343.035 230.744C343.227 231.245 343.323 231.779 343.323 232.344C343.323 232.483 343.317 232.627 343.307 232.776C343.296 232.925 343.275 233.064 343.243 233.192H336.347V231.752H342.219L341.355 232.408C341.461 231.885 341.424 231.421 341.243 231.016C341.072 230.6 340.805 230.275 340.443 230.04C340.091 229.795 339.675 229.672 339.195 229.672C338.715 229.672 338.288 229.795 337.915 230.04C337.541 230.275 337.253 230.616 337.051 231.064C336.848 231.501 336.768 232.035 336.811 232.664C336.757 233.251 336.837 233.763 337.051 234.2C337.275 234.637 337.584 234.979 337.979 235.224C338.384 235.469 338.843 235.592 339.355 235.592C339.877 235.592 340.32 235.475 340.683 235.24C341.056 235.005 341.349 234.701 341.563 234.328L343.035 235.048C342.864 235.453 342.597 235.821 342.235 236.152C341.883 236.472 341.456 236.728 340.955 236.92C340.464 237.101 339.925 237.192 339.339 237.192ZM345.087 237V228.344H346.815V230.088L346.655 229.832C346.847 229.267 347.157 228.861 347.583 228.616C348.01 228.36 348.522 228.232 349.119 228.232H349.647V229.88H348.895C348.298 229.88 347.813 230.067 347.439 230.44C347.077 230.803 346.895 231.325 346.895 232.008V237H345.087ZM353.857 237V225.08H358.881C359.628 225.08 360.273 225.213 360.817 225.48C361.361 225.736 361.777 226.109 362.065 226.6C362.353 227.08 362.497 227.651 362.497 228.312C362.497 228.888 362.348 229.416 362.049 229.896C361.761 230.365 361.308 230.739 360.689 231.016V230.216C361.233 230.429 361.676 230.701 362.017 231.032C362.358 231.352 362.604 231.715 362.753 232.12C362.913 232.525 362.993 232.952 362.993 233.4C362.993 234.52 362.625 235.4 361.889 236.04C361.164 236.68 360.166 237 358.897 237H353.857ZM355.745 235.32H359.041C359.67 235.32 360.172 235.149 360.545 234.808C360.918 234.456 361.105 233.992 361.105 233.416C361.105 232.829 360.918 232.365 360.545 232.024C360.172 231.672 359.67 231.496 359.041 231.496H355.745V235.32ZM355.745 229.832H358.929C359.441 229.832 359.852 229.688 360.161 229.4C360.47 229.101 360.625 228.712 360.625 228.232C360.625 227.752 360.47 227.379 360.161 227.112C359.852 226.845 359.441 226.712 358.929 226.712H355.745V229.832ZM367.351 237.192C366.764 237.192 366.247 237.091 365.799 236.888C365.362 236.675 365.02 236.387 364.775 236.024C364.53 235.651 364.407 235.213 364.407 234.712C364.407 234.243 364.508 233.821 364.711 233.448C364.924 233.075 365.25 232.76 365.687 232.504C366.124 232.248 366.674 232.067 367.335 231.96L370.343 231.464V232.888L367.687 233.352C367.207 233.437 366.855 233.592 366.631 233.816C366.407 234.029 366.295 234.307 366.295 234.648C366.295 234.979 366.418 235.251 366.663 235.464C366.919 235.667 367.244 235.768 367.639 235.768C368.13 235.768 368.556 235.661 368.919 235.448C369.292 235.235 369.58 234.952 369.783 234.6C369.986 234.237 370.087 233.837 370.087 233.4V231.176C370.087 230.749 369.927 230.403 369.607 230.136C369.298 229.859 368.882 229.72 368.359 229.72C367.879 229.72 367.458 229.848 367.095 230.104C366.743 230.349 366.482 230.669 366.311 231.064L364.807 230.312C364.967 229.885 365.228 229.512 365.591 229.192C365.954 228.861 366.375 228.605 366.855 228.424C367.346 228.243 367.863 228.152 368.407 228.152C369.09 228.152 369.692 228.28 370.215 228.536C370.748 228.792 371.159 229.149 371.447 229.608C371.746 230.056 371.895 230.579 371.895 231.176V237H370.167V235.432L370.535 235.48C370.332 235.832 370.071 236.136 369.751 236.392C369.442 236.648 369.084 236.845 368.679 236.984C368.284 237.123 367.842 237.192 367.351 237.192ZM374.009 237V228.344H375.737V230.04L375.529 229.816C375.742 229.272 376.084 228.861 376.553 228.584C377.022 228.296 377.566 228.152 378.185 228.152C378.825 228.152 379.39 228.291 379.881 228.568C380.372 228.845 380.756 229.229 381.033 229.72C381.31 230.211 381.449 230.776 381.449 231.416V237H379.657V231.896C379.657 231.459 379.577 231.091 379.417 230.792C379.257 230.483 379.028 230.248 378.729 230.088C378.441 229.917 378.11 229.832 377.737 229.832C377.364 229.832 377.028 229.917 376.729 230.088C376.441 230.248 376.217 230.483 376.057 230.792C375.897 231.101 375.817 231.469 375.817 231.896V237H374.009ZM383.384 237V228.344H385.112V230.04L384.904 229.816C385.117 229.272 385.459 228.861 385.928 228.584C386.397 228.296 386.941 228.152 387.56 228.152C388.2 228.152 388.765 228.291 389.256 228.568C389.747 228.845 390.131 229.229 390.408 229.72C390.685 230.211 390.824 230.776 390.824 231.416V237H389.032V231.896C389.032 231.459 388.952 231.091 388.792 230.792C388.632 230.483 388.403 230.248 388.104 230.088C387.816 229.917 387.485 229.832 387.112 229.832C386.739 229.832 386.403 229.917 386.104 230.088C385.816 230.248 385.592 230.483 385.432 230.792C385.272 231.101 385.192 231.469 385.192 231.896V237H383.384ZM396.823 237.192C395.959 237.192 395.191 236.995 394.519 236.6C393.858 236.195 393.34 235.651 392.967 234.968C392.594 234.275 392.407 233.501 392.407 232.648C392.407 231.773 392.594 231 392.967 230.328C393.351 229.656 393.863 229.128 394.503 228.744C395.143 228.349 395.868 228.152 396.679 228.152C397.33 228.152 397.911 228.264 398.423 228.488C398.935 228.712 399.367 229.021 399.719 229.416C400.071 229.8 400.338 230.243 400.519 230.744C400.711 231.245 400.807 231.779 400.807 232.344C400.807 232.483 400.802 232.627 400.791 232.776C400.78 232.925 400.759 233.064 400.727 233.192H393.831V231.752H399.703L398.839 232.408C398.946 231.885 398.908 231.421 398.727 231.016C398.556 230.6 398.29 230.275 397.927 230.04C397.575 229.795 397.159 229.672 396.679 229.672C396.199 229.672 395.772 229.795 395.399 230.04C395.026 230.275 394.738 230.616 394.535 231.064C394.332 231.501 394.252 232.035 394.295 232.664C394.242 233.251 394.322 233.763 394.535 234.2C394.759 234.637 395.068 234.979 395.463 235.224C395.868 235.469 396.327 235.592 396.839 235.592C397.362 235.592 397.804 235.475 398.167 235.24C398.54 235.005 398.834 234.701 399.047 234.328L400.519 235.048C400.348 235.453 400.082 235.821 399.719 236.152C399.367 236.472 398.94 236.728 398.439 236.92C397.948 237.101 397.41 237.192 396.823 237.192ZM402.572 237V228.344H404.3V230.088L404.14 229.832C404.332 229.267 404.641 228.861 405.068 228.616C405.494 228.36 406.006 228.232 406.604 228.232H407.132V229.88H406.38C405.782 229.88 405.297 230.067 404.924 230.44C404.561 230.803 404.38 231.325 404.38 232.008V237H402.572Z" fill="#1E1E1E"/>
<path d="M346.28 90.2398C339.304 71.7258 324.307 60 301.654 60C272.83 60 252.662 81.4029 250.929 109.326C237.032 113.771 227 127.948 227 144.006C227 163.663 242.453 180.268 260.739 180.268H275.191C277.952 180.268 280.193 178.027 280.193 175.266C280.193 172.502 277.952 170.263 275.191 170.263H260.739C247.872 170.263 236.847 158.24 236.847 144.006C236.847 131.427 245.666 120.079 256.729 118.178L261.269 117.395L260.866 112.811L260.829 112.753C260.829 88.3863 276.864 70.0074 301.654 70.0074C321.523 70.0074 332.686 79.7971 337.849 96.4952L338.919 99.9394L342.523 100.017C361.107 100.407 377.4 115.485 377.4 134.216C377.4 151.264 366.102 170.264 348.997 170.264H337.566C334.805 170.264 332.564 172.505 332.564 175.266C332.564 178.03 334.805 180.269 337.566 180.269L348.959 180.254C373.971 179.593 387 155.699 387 134.216C387 111.125 368.904 92.6738 346.28 90.2401L346.28 90.2398ZM310.788 130.099C310.76 130.069 310.75 130.044 310.733 130.019L309.467 128.696C308.774 127.963 307.851 127.6 306.928 127.605C306.005 127.597 305.087 127.963 304.382 128.695L303.117 130.019C303.092 130.044 303.086 130.074 303.064 130.099L285.008 150.068C283.61 151.529 283.61 153.893 285.008 155.358L286.268 156.214C287.667 157.674 289.933 157.202 291.328 155.741L301.976 143.87V194.275C301.976 197.036 304.217 199.277 306.979 199.277C309.74 199.277 311.981 197.036 311.981 194.275V143.918L322.981 156.053C324.38 157.514 326.641 157.987 328.036 156.526L329.297 155.671C330.695 154.205 330.695 151.842 329.297 150.381L310.788 130.099Z" fill="black" fill-opacity="0.6"/>
</svg>
